<?xml version="1.0" encoding="utf-8"?>
<!-- Generator: Adobe Illustrator 24.0.1, SVG Export Plug-In . SVG Version: 6.00 Build 0)  -->
<svg version="1.1" id="Layer_1" xmlns="http://www.w3.org/2000/svg" xmlns:xlink="http://www.w3.org/1999/xlink" x="0px" y="0px"
	 viewBox="0 0 705.9 423" style="enable-background:new 0 0 705.9 423;" xml:space="preserve">
<style type="text/css">
	.st0{opacity:0.02;fill:#FFFFFF;}
</style>
<path class="st0" d="M148.6,270.3c0.9,0.9,1.3,2.1,1.3,3.3c0,1.3-0.4,2.4-1.3,3.3s-2,1.4-3.3,1.4c-1.2-0.1-2.3-0.5-3.3-1.4
	c-0.9-0.9-1.4-2-1.4-3.3c0-1.3,0.4-2.4,1.3-3.3c0.9-0.9,2-1.3,3.3-1.3C146.5,269,147.6,269.5,148.6,270.3z M156.4,127.7
	c0.9-0.9,1.3-2,1.3-3.3c0-1.3-0.4-2.4-1.3-3.3c-1-0.9-2.1-1.4-3.3-1.4c-1.3,0-2.4,0.4-3.3,1.4c-0.9,0.9-1.3,2-1.3,3.3
	c0,1.3,0.5,2.3,1.4,3.3c0.9,0.9,2,1.3,3.3,1.4C154.4,129,155.5,128.6,156.4,127.7z M145.2,127.6c-1.3,0-2.4,0.4-3.3,1.3
	c-0.9,0.9-1.3,2-1.3,3.3s0.5,2.3,1.4,3.3c0.9,0.9,2.1,1.3,3.3,1.4c1.3,0,2.4-0.4,3.3-1.3s1.3-2,1.3-3.3s-0.4-2.4-1.3-3.3
	C147.6,128.1,146.5,127.6,145.2,127.6z M371.2,212.1l-17.7,17.7l5.7,5.7l17.7-17.7L371.2,212.1z M137.4,156.3l0.2,0.2
	c1.1,1.4,2,2.8,2.8,4.2c0.7,1.4,1.1,2.9,1.1,4.6c0,1.7-0.6,3.2-1.7,4.4l-2.5,2.5l6.2,6.1l3.2-3.2c2-2.3,3.1-4.8,3.3-7.7
	c0.2-2.9-0.1-5.8-1.2-8.6c-0.7-1.7-1.5-3.3-2.5-5l13.2-13.2c0.6-0.6,1.3-0.4,1.9,0.4l2.5,3.4l-12.2,12.2l6.2,6.2l11.2-11.2
	c0.2,0.2,0.2,0.3,0.3,0.4c0.7,1.4,1.1,2.9,1.1,4.6c0,1.7-0.6,3.2-1.7,4.4l-6.3,6.3l6.1,6.1l7.1-7.1c2-2.3,3.1-4.8,3.3-7.7
	c0.2-2.9-0.1-5.8-1.2-8.6c-1.1-2.8-2.5-5.4-4.5-7.9l-9.3-12.2c-1-0.9-2-1.3-3.3-1.3c-1.2,0.1-2.2,0.5-3,1.3L138,149.8
	c-0.8,0.8-1.3,1.9-1.4,3.1C136.4,154.2,136.8,155.3,137.4,156.3z M156.4,269.1c0.9-0.9,1.3-2.1,1.3-3.3s-0.4-2.4-1.3-3.3
	c-1-0.8-2.1-1.3-3.3-1.3c-1.3,0-2.4,0.4-3.3,1.3s-1.3,2-1.3,3.3s0.5,2.3,1.4,3.3c0.9,0.9,2,1.3,3.3,1.4
	C154.4,270.5,155.5,270,156.4,269.1z M137.4,297.8l0.2,0.2c1.1,1.4,2,2.8,2.8,4.2c0.7,1.4,1.1,2.9,1.1,4.6c0,1.7-0.6,3.2-1.7,4.4
	l-2.5,2.5l6.2,6.2l3.2-3.2c2-2.3,3.1-4.8,3.3-7.7c0.2-2.9-0.1-5.8-1.2-8.5c-0.7-1.7-1.5-3.3-2.5-5l13.2-13.2
	c0.6-0.6,1.3-0.4,1.9,0.4l2.5,3.4l-12.2,12.2l6.2,6.1l11.2-11.2c0.2,0.1,0.2,0.3,0.3,0.4c0.7,1.4,1.1,2.9,1.1,4.6
	c0,1.7-0.6,3.2-1.7,4.4l-6.3,6.3l6.1,6.2l7.1-7.1c2-2.3,3.1-4.8,3.3-7.7c0.2-2.9-0.1-5.8-1.2-8.6s-2.5-5.4-4.5-7.9l-9.3-12.2
	c-1-0.8-2-1.3-3.3-1.3c-1.2,0.1-2.2,0.5-3,1.3L138,291.3c-0.8,0.9-1.3,1.9-1.4,3.1C136.4,295.6,136.8,296.7,137.4,297.8z
	 M209.6,386.4l14.9-14.9l12.2,12.2l7-7l-12.4-12.4c1.5-2.2,2.3-4.9,2.4-8.1c0.1-4-1.1-9-3.5-14.8l-4.2-9.5l-7.6,7.6l0.1,0.1l2.2,4.9
	c0.9,1.8,1.6,3.6,2.2,5.5c0.6,1.8,0.8,3.7,0.6,5.8c-0.2,2-1,3.8-2.3,5.2l-18.5,18.5L209.6,386.4z M209.6,244.9l14.9-14.9l12.2,12.2
	l7-7l-12.4-12.4c1.5-2.2,2.3-4.9,2.4-8.1c0.1-4-1.1-9.1-3.5-14.9l-4.2-9.5l-7.6,7.6l0.1,0.1l2.2,4.9c0.9,1.8,1.6,3.6,2.2,5.4
	c0.6,1.8,0.8,3.8,0.6,5.8c-0.2,2-1,3.8-2.3,5.2l-18.5,18.5L209.6,244.9z M359.3,377l17.7-17.7l-5.7-5.7l-17.7,17.7L359.3,377z
	 M154.1,412.9c1.3,0,2.3-0.5,3.3-1.4c0.9-0.9,1.3-2,1.4-3.3c0-1.3-0.4-2.4-1.3-3.3c-1-0.8-2.1-1.3-3.3-1.3c-1.3,0-2.4,0.4-3.3,1.3
	c-0.9,0.9-1.3,2.1-1.3,3.3c0,1.3,0.5,2.3,1.4,3.3C151.7,412.4,152.9,412.8,154.1,412.9z M142.9,412.7c-0.9,0.9-1.3,2-1.3,3.3
	c0,1.3,0.5,2.3,1.4,3.3c0.9,0.9,2,1.3,3.3,1.4c1.3,0,2.3-0.5,3.3-1.4c0.9-0.9,1.3-2.1,1.4-3.3c0-1.3-0.4-2.4-1.3-3.3
	c-1-0.9-2-1.4-3.3-1.4C145,411.4,143.8,411.8,142.9,412.7z M221.1,78l-18.5,18.5l7,7l14.9-14.9l12.2,12.2l7-7l-12.4-12.4
	c1.5-2.2,2.3-4.9,2.4-8.1c0.1-4-1.1-9-3.5-14.8l-4.2-9.5l-7.6,7.6l0.1,0.1l2.2,4.9c0.9,1.8,1.6,3.6,2.2,5.4c0.6,1.8,0.8,3.8,0.6,5.8
	C223.2,74.8,222.4,76.6,221.1,78z M164.8,413.9c-0.9-0.8-1.9-1.2-3.3-1.3c-1.2,0.1-2.2,0.5-3,1.3l-9.3,9.3h22.7L164.8,413.9z
	 M86.8,58.3c0.9-0.9,1.4-2.1,1.4-3.4c0-1.3-0.5-2.5-1.4-3.4s-2.1-1.4-3.4-1.4c-1.3,0-2.5,0.5-3.4,1.4c-0.9,0.9-1.4,2.1-1.4,3.4
	c0,1.3,0.4,2.4,1.4,3.4c1,1,2.1,1.4,3.4,1.4C84.7,59.7,85.9,59.2,86.8,58.3z M75.4,58.1c-1.3,0-2.4,0.4-3.4,1.4
	c-1,1-1.4,2.1-1.4,3.4c0,1.3,0.4,2.4,1.4,3.4c1,1,2.1,1.4,3.4,1.4c1.3,0,2.5-0.5,3.4-1.4c0.9-0.9,1.4-2.1,1.4-3.4
	c0-1.3-0.5-2.5-1.4-3.4C77.8,58.6,76.7,58.1,75.4,58.1z M62.6,97.9l5.4-5.4l5.2,5.2c2.3,2.3,4.7,4,7.2,5.4c2.6,1.3,5.3,2,8.1,2
	c2.8-0.1,5.4-1.1,7.7-3.2l15.5-15.5l-6.3-6.3L91.4,94.1c-1.3,1.1-2.7,1.7-4.3,1.6c-1.6-0.1-3.1-0.6-4.4-1.4c-1.3-0.8-2.5-2-3.8-3.3
	l-4.7-4.7l15.1-15.1c0.5-0.5,1-0.7,1.5-0.8c0.5-0.1,0.9-0.1,1.3,0c0.4,0.1,0.7,0.3,0.9,0.5c0.2,0.2,0.4,0.6,0.5,0.9
	c0.1,0.4,0.1,0.8,0,1.3c-0.1,0.5-0.4,1-0.8,1.4L81.5,85.8l6.3,6.3l10.3-10.3c2.2-2.2,3.6-4.5,4.1-6.8c0.5-2.3,0.6-4.4,0-6.1
	c-0.5-1.8-1.4-3.3-2.5-4.4c-1.2-1.3-2.6-2.2-4.4-2.7c-1.8-0.5-3.8-0.6-6.1,0c-2.3,0.5-4.5,1.8-6.8,4l-0.3,0.3
	c-0.2,0.2-0.4,0.3-0.6,0.5L68.1,80l-3.4-3.4l-6.4,6.4l3.3,3.3l-5.4,5.4L62.6,97.9z M86.8,199.7c0.9-0.9,1.4-2.1,1.4-3.4
	c0-1.3-0.5-2.5-1.4-3.4c-0.9-0.9-2.1-1.4-3.4-1.4c-1.3,0-2.5,0.5-3.4,1.4c-0.9,0.9-1.4,2.1-1.4,3.4c0,1.3,0.4,2.4,1.4,3.4
	c1,1,2.1,1.4,3.4,1.4C84.7,201.1,85.9,200.6,86.8,199.7z M146.2,12.4l12.2-12.2h-12.3L138,8.4c-0.8,0.8-1.3,1.9-1.4,3.1
	c-0.1,1.3,0.2,2.3,0.9,3.4l0.2,0.2c1.1,1.4,2,2.8,2.8,4.2c0.7,1.4,1.1,2.9,1.1,4.6s-0.6,3.2-1.7,4.4l-2.5,2.5l6.2,6.2l3.2-3.2
	c2-2.3,3.1-4.8,3.3-7.7c0.2-2.9-0.1-5.8-1.2-8.5C148,15.8,147.2,14.1,146.2,12.4z M177.6,8.8c-1.1-2.8-2.5-5.4-4.5-7.8l-0.5-0.6
	h-10.9l2.1,2.8l-12.2,12.2l6.2,6.2l11.2-11.2c0.2,0.1,0.2,0.3,0.3,0.4c0.7,1.4,1.1,2.9,1.1,4.6c0,1.7-0.6,3.2-1.7,4.4l-6.3,6.3
	l6.1,6.2l7.1-7.1c2-2.3,3.1-4.8,3.3-7.7C179,14.4,178.7,11.5,177.6,8.8z M76.3,341.9c-1.3,0-2.4,0.4-3.4,1.4s-1.4,2.1-1.4,3.4
	c0,1.3,0.5,2.5,1.4,3.4c0.9,0.9,2.1,1.4,3.4,1.4c1.3,0,2.5-0.5,3.4-1.4s1.4-2.1,1.4-3.4c0-1.3-0.4-2.4-1.4-3.4
	C78.8,342.4,77.6,342,76.3,341.9z M62.6,239.4L68,234l5.2,5.2c2.3,2.3,4.7,4,7.2,5.4c2.6,1.3,5.3,2,8.1,2c2.8-0.1,5.4-1.1,7.7-3.2
	l15.5-15.5l-6.3-6.3l-13.9,13.9c-1.3,1.1-2.7,1.7-4.3,1.6c-1.6-0.1-3.1-0.6-4.4-1.4c-1.3-0.9-2.5-2-3.8-3.3l-4.7-4.7l15.1-15.1
	c0.5-0.5,1-0.7,1.5-0.8c0.5-0.1,0.9-0.1,1.3,0c0.4,0.1,0.7,0.3,0.9,0.5c0.2,0.2,0.4,0.6,0.5,0.9c0.1,0.3,0.1,0.8,0,1.3
	c-0.1,0.5-0.4,1-0.8,1.4l-11.1,11.1l6.3,6.3l10.3-10.3c2.2-2.2,3.6-4.5,4.1-6.8c0.5-2.3,0.6-4.4,0-6.1c-0.5-1.8-1.4-3.3-2.5-4.4
	c-1.2-1.3-2.6-2.2-4.4-2.7c-1.8-0.5-3.8-0.6-6.1,0c-2.3,0.5-4.5,1.8-6.8,4l-0.3,0.3c-0.2,0.2-0.4,0.3-0.6,0.5l-13.4,13.4l-3.4-3.4
	l-6.4,6.4l3.3,3.3l-5.4,5.4L62.6,239.4z M75.4,199.5c-1.3,0-2.4,0.4-3.4,1.4c-1,1-1.4,2.1-1.4,3.4c0,1.3,0.4,2.4,1.4,3.4
	c1,1,2.1,1.4,3.4,1.4c1.3,0,2.5-0.5,3.4-1.4c0.9-0.9,1.4-2.1,1.4-3.4c0-1.3-0.5-2.5-1.4-3.4C77.8,200,76.7,199.5,75.4,199.5z
	 M87.8,342c0.9-0.9,1.4-2.1,1.4-3.4c0-1.3-0.4-2.4-1.4-3.4c-0.9-0.9-2-1.3-3.4-1.4c-1.3,0-2.5,0.5-3.4,1.4c-0.9,0.9-1.4,2.1-1.4,3.4
	c0,1.3,0.5,2.5,1.4,3.4c0.9,0.9,2.1,1.4,3.4,1.4C85.6,343.4,86.8,342.9,87.8,342z M425.5,413.1c-1,1-1.4,2.1-1.4,3.4
	c0,1.3,0.4,2.4,1.4,3.4c1,1,2.1,1.4,3.4,1.4c1.3,0,2.5-0.5,3.4-1.4c0.9-0.9,1.4-2.1,1.4-3.4c0-1.3-0.5-2.5-1.4-3.4s-2.1-1.4-3.4-1.4
	C427.7,411.7,426.5,412.1,425.5,413.1z M497.8,199.3c-1.3,0-2.4,0.4-3.3,1.4c-0.9,0.9-1.3,2-1.3,3.3c0,1.3,0.4,2.4,1.3,3.3
	c0.9,0.9,2.1,1.3,3.3,1.3c1.3,0,2.4-0.4,3.3-1.3c0.9-0.9,1.4-2.1,1.4-3.3c0-1.3-0.4-2.4-1.4-3.3S499.1,199.3,497.8,199.3z
	 M509,199.4c0.9-0.9,1.3-2,1.3-3.3c0-1.3-0.4-2.4-1.3-3.3c-0.9-0.9-2.1-1.3-3.3-1.3c-1.3,0-2.4,0.4-3.3,1.3
	c-0.9,0.9-1.4,2.1-1.4,3.3c0,1.3,0.5,2.3,1.4,3.3c0.9,0.9,2,1.4,3.3,1.4C506.9,200.8,508,200.3,509,199.4z M495.5,58.2
	c-0.9,0.9-1.4,2.1-1.4,3.3c0,1.3,0.5,2.3,1.4,3.3c0.9,0.9,2.1,1.3,3.3,1.4c1.3,0,2.4-0.4,3.3-1.4c0.9-0.9,1.4-2,1.4-3.3
	c0-1.3-0.4-2.4-1.4-3.3c-1-0.8-2-1.3-3.3-1.3C497.5,56.8,496.4,57.3,495.5,58.2z M526.7,71.6l-9.3-12.2c-1-0.8-2-1.3-3.3-1.3
	c-1.2,0.1-2.2,0.5-3,1.3l-19.7,19.7c-0.8,0.8-1.3,1.9-1.4,3.1c-0.1,1.3,0.2,2.3,0.8,3.4l0.2,0.2c1.1,1.4,2,2.8,2.8,4.2
	c0.7,1.4,1.1,2.9,1.1,4.6s-0.6,3.2-1.7,4.4l-2.5,2.5l6.2,6.2l3.2-3.2c2-2.3,3.1-4.8,3.3-7.7c0.2-2.9-0.1-5.8-1.2-8.5
	c-0.7-1.7-1.5-3.3-2.5-5L512.9,70c0.6-0.6,1.3-0.4,1.9,0.4l2.5,3.4L505.2,86l6.2,6.2L522.5,81c0.1,0.2,0.1,0.3,0.3,0.4
	c0.7,1.4,1.1,2.9,1.1,4.6c0,1.7-0.6,3.2-1.7,4.4l-6.3,6.3l6.1,6.2l7.1-7.1c2-2.3,3.1-4.8,3.3-7.7c0.2-2.9-0.1-5.8-1.2-8.6
	S528.6,74.1,526.7,71.6z M506.6,58.3c1.3,0,2.4-0.4,3.3-1.3c0.9-0.9,1.3-2,1.3-3.3s-0.4-2.4-1.3-3.3c-1-0.8-2-1.3-3.3-1.3
	s-2.4,0.4-3.3,1.3c-0.9,0.9-1.3,2-1.3,3.3s0.5,2.3,1.4,3.3S505.4,58.3,506.6,58.3z M583.9,11.7c1.5-2.2,2.3-4.9,2.4-8.1
	c0-1,0-2.2-0.2-3.3H576c0.1,0.9,0,1.8,0,2.8c-0.3,2.1-1,3.8-2.3,5.2l-18.5,18.5l7,7l14.9-14.9L589.2,31l7-7L583.9,11.7z
	 M416.1,310.1l5.4-5.4l5.2,5.2c2.3,2.3,4.7,4,7.2,5.4c2.6,1.3,5.3,2,8.1,2s5.4-1.1,7.7-3.2l15.5-15.5l-6.3-6.3L445,306.3
	c-1.3,1.1-2.7,1.7-4.3,1.6c-1.6-0.1-3.1-0.6-4.4-1.4c-1.3-0.8-2.5-2-3.8-3.3l-4.7-4.7l15.1-15.1c0.5-0.5,1-0.7,1.5-0.8
	c0.5-0.1,0.9-0.1,1.3,0c0.4,0.1,0.7,0.3,0.9,0.5c0.2,0.2,0.4,0.6,0.5,0.9c0.1,0.3,0.1,0.8,0,1.3c-0.1,0.5-0.4,1-0.9,1.4l-11.1,11.1
	l6.3,6.3l10.3-10.3c2.2-2.2,3.6-4.5,4.1-6.8c0.5-2.3,0.6-4.4,0-6.1c-0.5-1.8-1.4-3.3-2.5-4.4c-1.2-1.3-2.6-2.2-4.4-2.7
	c-1.8-0.5-3.8-0.6-6.1,0c-2.3,0.5-4.5,1.8-6.8,4l-0.3,0.3c-0.2,0.2-0.4,0.3-0.6,0.5l-13.4,13.4l-3.4-3.4l-6.4,6.4l3.3,3.3l-5.4,5.4
	L416.1,310.1z M506.6,341.2c1.3,0,2.4-0.4,3.3-1.3c0.9-0.9,1.3-2,1.3-3.3c0-1.3-0.4-2.4-1.3-3.3c-1-0.9-2-1.3-3.3-1.3
	s-2.4,0.4-3.3,1.3c-0.9,0.9-1.3,2-1.3,3.3c0,1.3,0.5,2.3,1.4,3.3C504.3,340.7,505.4,341.1,506.6,341.2z M437,413.2
	c1.3,0,2.5-0.5,3.4-1.4c0.9-0.9,1.4-2.1,1.4-3.4c0-1.3-0.5-2.5-1.4-3.4s-2.1-1.4-3.4-1.4c-1.3,0-2.5,0.5-3.4,1.4
	c-0.9,0.9-1.4,2.1-1.4,3.4c0,1.3,0.4,2.4,1.4,3.4C434.6,412.8,435.7,413.2,437,413.2z M495.5,341c-0.9,0.9-1.4,2-1.4,3.3
	s0.5,2.3,1.4,3.3c0.9,0.9,2.1,1.3,3.3,1.4c1.3,0,2.4-0.4,3.3-1.3c0.9-0.9,1.4-2,1.4-3.3s-0.4-2.4-1.4-3.3c-1-0.8-2-1.3-3.3-1.3
	C497.5,339.7,496.4,340.1,495.5,341z M425.5,271.7c-1,1-1.4,2.1-1.4,3.4c0,1.3,0.4,2.4,1.4,3.4c1,1,2.1,1.4,3.4,1.4
	c1.3,0,2.5-0.5,3.4-1.4c0.9-0.9,1.4-2.1,1.4-3.4c0-1.3-0.5-2.5-1.4-3.4s-2.1-1.4-3.4-1.4C427.7,270.3,426.5,270.7,425.5,271.7z
	 M5.7,164.8l17.7-17.7l-5.7-5.7L0,159.1L5.7,164.8z M437,271.8c1.3,0,2.5-0.5,3.4-1.4c0.9-0.9,1.4-2.1,1.4-3.4
	c0-1.3-0.5-2.5-1.4-3.4s-2.1-1.4-3.4-1.4c-1.3,0-2.5,0.5-3.4,1.4c-0.9,0.9-1.4,2.1-1.4,3.4c0,1.3,0.4,2.4,1.4,3.4
	C434.6,271.4,435.7,271.8,437,271.8z M455.7,422.5c-0.5-1.8-1.4-3.3-2.5-4.4c-1.2-1.3-2.6-2.2-4.4-2.7c-1.8-0.5-3.8-0.6-6.1,0
	c-2.3,0.5-4.5,1.8-6.8,4l-0.3,0.3c-0.2,0.2-0.4,0.3-0.6,0.5l-3.1,3.1h24C455.9,423,455.8,422.7,455.7,422.5z M326.1,149.3l-25.4,0.7
	l-4.2-17.2c-0.2-0.8-0.6-1.4-1.2-1.9c-0.8-0.8-1.9-1.3-3.2-1.3c-1.2,0.1-2.3,0.4-3.2,1.3l-25.9,26l6.3,6.3l20.7-20.7l3,11.7
	c0.5,2,0.9,4,1.1,5.9c0.2,1.9,0.1,4-0.3,6.1c-0.4,2.1-1.3,3.8-2.4,5.1l-6.9,6.9l6.3,6.3l7.3-7.3c2.1-2.4,3.5-5.7,4.1-9.9
	c0.4-2.5,0.3-5.2,0-8.2l14.6-0.4L326.1,149.3z M269.3,304.6l20.7-20.7l3,11.7c0.5,2.1,0.9,4,1.1,5.9c0.2,1.9,0.1,4-0.3,6.1
	c-0.4,2.1-1.3,3.8-2.4,5.1l-6.9,6.9l6.3,6.3l7.3-7.3c2.1-2.4,3.5-5.7,4.1-9.9c0.4-2.5,0.3-5.2,0-8.2l14.6-0.4l9.3-9.3l-25.4,0.7
	l-4.2-17.2c-0.2-0.8-0.6-1.3-1.2-1.9c-0.8-0.9-1.9-1.4-3.2-1.4c-1.2,0.1-2.3,0.4-3.2,1.4L263,298.3L269.3,304.6z M574.7,148.7
	l-18.5,18.5l7,7l14.9-14.9l12.2,12.2l7-7l-12.4-12.4c1.5-2.2,2.3-4.9,2.4-8.1c0.1-4-1.1-9-3.5-14.8l-4.2-9.5l-7.6,7.6l0.1,0.1
	l2.2,4.9c0.9,1.8,1.6,3.6,2.2,5.4c0.6,1.8,0.8,3.8,0.6,5.8C576.7,145.5,575.9,147.3,574.7,148.7z M295.3,413.8
	c-0.8-0.9-1.9-1.3-3.2-1.3c-1.2,0.1-2.3,0.4-3.2,1.3l-9.4,9.4h18.8l-1.8-7.5C296.3,414.9,295.8,414.4,295.3,413.8z M577,423.2H587
	c-0.5-3.3-1.5-7-3.3-11.1l-4.2-9.5l-7.6,7.6l2.2,4.9c0.9,1.8,1.6,3.6,2.2,5.4C576.7,421.4,576.9,422.3,577,423.2z M490.1,365.1
	c-0.1,1.3,0.2,2.3,0.8,3.4l0.2,0.2c1.1,1.4,2,2.8,2.8,4.2c0.7,1.4,1.1,2.9,1.1,4.6c0,1.7-0.6,3.2-1.7,4.4l-2.5,2.5l6.2,6.1l3.2-3.2
	c2-2.3,3.1-4.8,3.3-7.7c0.2-2.9-0.1-5.8-1.2-8.6c-0.7-1.7-1.5-3.3-2.5-5l13.1-13.2c0.6-0.6,1.3-0.4,1.9,0.3l2.5,3.4l-12.2,12.2
	l6.2,6.2l11.2-11.2c0.1,0.1,0.1,0.3,0.3,0.4c0.7,1.4,1.1,2.9,1.1,4.6c0,1.7-0.6,3.2-1.7,4.4l-6.3,6.3l6.1,6.2l7.1-7.1
	c2-2.3,3.1-4.8,3.3-7.7c0.2-2.9-0.1-5.8-1.2-8.6c-1.1-2.8-2.5-5.4-4.5-7.9l-9.3-12.2c-1-0.9-2-1.3-3.3-1.3c-1.2,0.1-2.2,0.5-3,1.3
	L491.5,362C490.7,362.8,490.2,363.9,490.1,365.1z M577.1,301.7l12.2,12.2l7-7l-12.4-12.4c1.5-2.2,2.3-4.9,2.4-8.1
	c0.1-4.1-1.1-9-3.5-14.8l-4.2-9.5l-7.6,7.6l0.1,0.1l2.2,4.9c0.9,1.8,1.5,3.7,2.2,5.5c0.6,1.8,0.8,3.7,0.6,5.8
	c-0.3,2.1-1,3.8-2.3,5.2l-18.5,18.5l7,7L577.1,301.7z M5.7,23.4L23.4,5.7L18,0.3L17.7,0l-0.3,0.3L0,17.7L5.7,23.4z M679.7,220
	l-25.5,0.7l-4.2-17.2c-0.2-0.8-0.6-1.3-1.2-1.9c-0.8-0.8-1.9-1.3-3.2-1.3c-1.2,0.1-2.3,0.4-3.2,1.3l-26,26l6.3,6.3l20.7-20.7l3,11.7
	c0.5,2,0.9,4,1.1,5.9c0.2,1.9,0.1,4-0.3,6.1c-0.4,2.1-1.3,3.8-2.4,5.1l-6.9,6.9l6.3,6.3l7.3-7.3c2.1-2.4,3.5-5.7,4.1-9.9
	c0.3-2.5,0.3-5.2,0-8.2l14.6-0.4L679.7,220z M642.5,72.8l3,11.7c0.5,2,0.9,4,1.1,5.9c0.2,1.9,0.1,4-0.3,6.1c-0.4,2.1-1.3,3.8-2.3,5
	l-6.9,6.9l6.3,6.3l7.4-7.4c2.1-2.4,3.5-5.7,4.1-9.9c0.3-2.5,0.3-5.2,0-8.2l14.6-0.4l9.3-9.3l-25.5,0.7l-4.2-17.2
	c-0.2-0.8-0.6-1.3-1.2-1.9c-0.9-0.8-1.9-1.3-3.2-1.3c-1.2,0.1-2.3,0.5-3.2,1.3l-26,26l6.3,6.3L642.5,72.8z M642.5,355.6l3,11.7
	c0.5,2,0.9,4,1.1,5.9c0.2,1.9,0.1,4-0.3,6.1c-0.4,2.1-1.3,3.8-2.3,5l-6.9,6.9l6.3,6.3l7.4-7.4c2.1-2.4,3.5-5.7,4.1-9.9
	c0.3-2.5,0.3-5.2,0-8.2l14.6-0.4l9.3-9.3l-25.5,0.7l-4.2-17.2c-0.2-0.8-0.6-1.3-1.2-1.9c-0.9-0.8-1.9-1.3-3.2-1.3
	c-1.2,0.1-2.3,0.5-3.2,1.3l-26,26l6.3,6.3L642.5,355.6z M420.5,164.3l5.2,5.2c2.3,2.3,4.7,4,7.2,5.4c2.6,1.3,5.3,2,8.1,1.9
	c2.8-0.1,5.4-1.1,7.7-3.2l15.5-15.5l-6.3-6.3l-13.9,13.9c-1.3,1.1-2.7,1.7-4.3,1.6c-1.6-0.1-3.1-0.6-4.4-1.4c-1.3-0.8-2.5-2-3.8-3.3
	l-4.7-4.7l15.1-15.1c0.5-0.5,1-0.7,1.5-0.8c0.5-0.1,0.9-0.1,1.3,0c0.3,0.1,0.7,0.3,0.9,0.5c0.2,0.2,0.4,0.6,0.5,0.9
	c0.1,0.4,0.1,0.8,0,1.3c-0.1,0.5-0.4,1-0.8,1.4l-11.1,11.1l6.3,6.3l10.3-10.3c2.2-2.2,3.6-4.5,4.1-6.8c0.5-2.3,0.5-4.3,0-6.1
	c-0.5-1.8-1.4-3.3-2.5-4.4c-1.2-1.3-2.7-2.1-4.5-2.6c-1.8-0.5-3.8-0.6-6.1,0c-2.3,0.6-4.5,1.8-6.8,4l-0.3,0.3
	c-0.2,0.2-0.4,0.3-0.6,0.5l-13.4,13.4l-3.4-3.4l-6.4,6.4l3.3,3.3l-5.4,5.4l6.3,6.3L420.5,164.3z M325.2,8.8l-25.5,0.7l-2.3-9.3
	h-19.3L262,16.5l6.3,6.3L289,2l3,11.7c0.5,2,0.9,4,1.1,5.9c0.2,1.9,0.1,4-0.3,6.1s-1.3,3.8-2.3,5l-6.9,6.9l6.3,6.3l7.3-7.3
	c2.1-2.4,3.5-5.7,4.1-9.9c0.4-2.5,0.3-5.2,0-8.2l14.6-0.4L325.2,8.8z M376,77.4l-5.7-5.7l-17.7,17.7l5.7,5.7L376,77.4z M439.4,130
	c0.9-0.9,1.4-2.1,1.4-3.4c0-1.3-0.5-2.5-1.4-3.4c-0.9-0.9-2-1.5-3.4-1.4c-1.3,0-2.4,0.4-3.4,1.4c-0.9,0.9-1.4,2.1-1.4,3.4
	c0,1.3,0.4,2.4,1.4,3.4s2.1,1.4,3.4,1.4S438.5,130.9,439.4,130z M446.2,4l-11.1,11.1l6.3,6.3l10.3-10.3c2.2-2.2,3.6-4.5,4.1-6.8
	c0.3-1.5,0.5-2.8,0.4-4h-9.6c0,0,0,0,0.1,0.1c0.2,0.2,0.4,0.6,0.5,0.9c0.1,0.4,0.1,0.8,0,1.3C447,3,446.6,3.5,446.2,4z M458.9,9.5
	L445,23.4c-1.3,1.1-2.7,1.7-4.3,1.6c-1.6-0.1-3.1-0.6-4.4-1.4c-1.3-0.9-2.5-2-3.8-3.3l-4.7-4.7l15.1-15.1c0.1-0.1,0.3-0.3,0.4-0.3
	h-12.7l-9,9l-3.4-3.4l-6.4,6.4l3.3,3.3l-5.4,5.4l6.3,6.3l5.4-5.4l5.2,5.2c2.3,2.3,4.7,4,7.2,5.4c2.6,1.3,5.3,2,8.1,2
	c2.8-0.1,5.4-1.1,7.7-3.2l15.5-15.5L458.9,9.5z M427.9,129.8c-1.3,0-2.5,0.5-3.4,1.4c-0.9,0.9-1.4,2.1-1.4,3.4
	c0,1.3,0.4,2.4,1.4,3.4c1,1,2.1,1.4,3.4,1.4s2.5-0.5,3.4-1.4s1.4-2.1,1.4-3.4c0-1.3-0.5-2.5-1.4-3.4S429.3,129.8,427.9,129.8z
	 M490.2,228.2c1.1,1.4,2,2.8,2.8,4.2c0.7,1.4,1.1,2.9,1.1,4.6c0,1.7-0.6,3.2-1.7,4.4l-2.5,2.5l6.2,6.1l3.2-3.2
	c2-2.3,3.1-4.8,3.3-7.7c0.2-2.9-0.1-5.8-1.2-8.6c-0.7-1.7-1.5-3.3-2.5-5l13.2-13.2c0.6-0.6,1.3-0.4,1.9,0.4l2.6,3.4l-12.2,12.2
	l6.2,6.2l11.2-11.2c0.1,0.1,0.1,0.3,0.3,0.4c0.7,1.4,1.1,2.9,1.1,4.6c0,1.7-0.6,3.2-1.7,4.4l-6.3,6.3l6.1,6.1l7.1-7.1
	c2-2.3,3.1-4.8,3.3-7.7c0.2-2.9-0.1-5.8-1.2-8.6c-1.1-2.8-2.5-5.4-4.5-7.9l-9.3-12.2c-1-0.9-2-1.3-3.3-1.3c-1.2,0.1-2.2,0.5-3,1.4
	l-19.7,19.7c-0.9,0.8-1.4,1.9-1.4,3.1c-0.1,1.2,0.2,2.3,0.9,3.3L490.2,228.2z M92.4,377.9c-1.3,1.1-2.7,1.7-4.3,1.6
	c-1.6-0.1-3.1-0.6-4.4-1.4c-1.3-0.8-2.6-2-3.8-3.3l-4.7-4.7l15.1-15.1c0.5-0.5,1-0.7,1.5-0.8c0.5-0.1,0.9-0.1,1.3,0
	c0.4,0.1,0.7,0.3,0.9,0.5c0.3,0.3,0.4,0.6,0.5,0.9c0.1,0.3,0.1,0.8,0,1.3c-0.1,0.5-0.4,1-0.9,1.4l-11.1,11.1l6.3,6.3L99,365.6
	c2.2-2.2,3.6-4.5,4.1-6.8c0.5-2.3,0.6-4.4,0-6.1c-0.6-1.7-1.4-3.3-2.6-4.5c-1.1-1.2-2.5-2.1-4.3-2.6c-1.8-0.5-3.7-0.5-6.1,0
	c-2.3,0.5-4.5,1.8-6.8,4l-0.3,0.3c-0.2,0.2-0.4,0.3-0.6,0.5L69,363.7l-3.3-3.3l-6.4,6.4l3.3,3.3l-5.4,5.4l6.3,6.3l5.4-5.4l5.2,5.2
	c2.2,2.2,4.7,4,7.2,5.4c2.6,1.3,5.2,2,8.1,2c2.8-0.1,5.4-1.1,7.7-3.2l15.5-15.5l-6.3-6.3L92.4,377.9z M0.9,301.4l5.7,5.7l17.7-17.7
	l-5.7-5.7L0.9,301.4z"/>
</svg>
